<svg width="12" height="12" viewBox="0 0 12 12" fill="none" xmlns="http://www.w3.org/2000/svg">
<path d="M0.251005 0.254417C0.585699 -0.0802712 1.12832 -0.0802255 1.46309 0.254417L11.749 10.5368C12.0836 10.8715 12.0837 11.4141 11.749 11.7488C11.4143 12.0834 10.8717 12.0834 10.537 11.7488L0.251005 1.46647C-0.0836912 1.13178 -0.0836455 0.589175 0.251005 0.254417Z" fill="#E8ECEE"/>
<path d="M0.251005 11.7449C-0.0836455 11.4101 -0.0836912 10.8675 0.251005 10.5328L10.537 0.250431C10.8718 -0.0839357 11.4145 -0.0834217 11.749 0.251267C12.0835 0.586044 12.0837 1.12871 11.749 1.46332L1.46309 11.7449C1.12832 12.0795 0.585699 12.0795 0.251005 11.7449Z" fill="#E8ECEE"/>
</svg>
